<svg width="155" height="157" viewBox="0 0 155 157" fill="none" xmlns="http://www.w3.org/2000/svg">
<path fill-rule="evenodd" clip-rule="evenodd" d="M11.8152 80.3739L6.40825 80.6064L6.70835 87.584L4.43046 87.682L4.05197 78.8821L4.06396 78.8816L4.01343 77.7067L11.6863 77.3766L11.8152 80.3739ZM11.4383 104.602C9.29699 105.232 7.93177 103.694 6.86182 100.056C5.7851 96.3955 6.09391 94.3409 8.23522 93.7111C10.365 93.0847 11.7715 94.6348 12.8483 98.2958C13.9182 101.934 13.5681 103.975 11.4383 104.602ZM9.06477 96.5316C8.17832 96.7924 8.01985 97.8271 8.53112 99.5655C9.02885 101.258 9.7223 102.042 10.6088 101.781C11.4837 101.524 11.6835 100.502 11.179 98.7867C10.6745 97.0714 9.95123 96.2709 9.06477 96.5316ZM14.086 116.867C16.0227 120.128 17.7258 121.279 19.6448 120.139C21.5534 119.005 21.3875 116.94 19.4507 113.68C17.5017 110.4 15.7554 109.246 13.8468 110.38C11.9279 111.52 12.137 113.587 14.086 116.867ZM15.5819 115.979C14.6564 114.421 14.554 113.379 15.3484 112.907C16.1428 112.435 17.0416 113.032 17.9548 114.569C18.868 116.106 18.9272 117.146 18.1432 117.612C17.3488 118.084 16.4829 117.495 15.5819 115.979ZM23.5539 129.399L21.5303 127.35L27.4218 121.532L29.4454 123.581L23.5539 129.399ZM32.8643 130.459L28.4485 129.642L28.9671 134.881L26.4038 132.285L25.9613 127.089L30.183 127.743L32.8643 130.459ZM52.279 142.25L51.5243 143.924C51.4964 142.555 50.3621 141.188 48.3055 140.261C45.9426 139.196 43.7911 139.384 42.9426 141.265C42.1337 143.059 43.3825 144.873 45.7454 145.938C47.8129 146.871 49.5885 146.816 50.6216 145.926C50.17 146.986 50.0151 147.68 50.0151 147.68L52.4874 148.794L54.9045 143.434L52.279 142.25ZM47.4797 144.72C45.992 144.049 45.3163 143.27 45.6665 142.494C46.0217 141.706 47.0476 141.708 48.5353 142.379C50.1981 143.128 51.4898 144.001 51.0705 144.93C50.6562 145.849 49.1425 145.469 47.4797 144.72ZM64.624 145.829L66.6669 146.261L66.2946 148.022L64.2517 147.59L63.4079 151.582L60.5901 150.986L61.434 146.995L59.3912 146.563L59.7635 144.802L61.8063 145.233L62.1786 143.472L64.9963 144.068L64.624 145.829ZM94.9315 144.758C92.5587 145.191 91.3148 146.796 91.018 147.509C90.2464 146.089 88.6985 145.896 87.1993 146.169C84.6967 146.626 83.589 148.109 83.3094 148.917L82.9819 147.122L80.1487 147.639L81.2046 153.424L84.0378 152.907L83.4387 149.625C83.7562 149.359 84.7581 148.567 86.2219 148.299C87.8274 148.006 88.4287 148.36 88.6442 149.541L89.0903 151.984L91.9235 151.467L91.4128 148.669C91.3783 148.48 91.3341 148.306 91.2782 148.133C91.6697 147.805 92.632 147.129 93.9542 146.888C95.5596 146.595 96.1609 146.949 96.3764 148.129L96.8225 150.573L99.6557 150.056L99.145 147.258C98.6924 144.779 96.7731 144.422 94.9315 144.758ZM109.301 143.322L109.804 138.739L112.529 137.347L111.08 147.385L108.473 148.717L108.963 145.745L102.697 142.369L105.423 140.977L109.301 143.322ZM133.358 123.139L131.583 125.093C131.868 125.725 131.521 126.643 130.553 127.708C129.351 129.032 128.395 129.638 127.604 128.92C126.814 128.202 127.324 127.158 128.51 125.853C129.478 124.787 130.358 124.354 130.998 124.595L132.782 122.632C131.495 121.496 129.724 121.929 127.222 124.683C124.721 127.436 123.94 129.563 125.627 131.096C127.315 132.63 129.34 131.632 131.841 128.878C134.342 126.125 134.646 124.309 133.358 123.139ZM139.585 110.033L137.969 109.162L139.336 106.627L144.512 109.417L143.225 111.804C143.225 111.804 142.544 111.601 141.518 111.075C142.333 112.169 142.262 113.944 141.186 115.94C139.956 118.222 138.059 119.339 136.327 118.405C134.51 117.426 134.474 115.267 135.704 112.985C136.775 110.999 138.218 109.964 139.585 110.033ZM137.744 115.775C138.494 116.179 139.319 115.56 140.093 114.124C140.959 112.518 141.445 111.035 140.557 110.557C139.659 110.073 138.698 111.3 137.833 112.905C137.058 114.342 136.984 115.365 137.744 115.775ZM142.987 95.0937L142.412 97.1009L140.682 96.605L139.888 99.3735L141.619 99.8694L141.043 101.877L142.774 102.373L143.349 100.365L147.271 101.489L148.065 98.7208L144.142 97.5968L144.718 95.5896L142.987 95.0937ZM148.03 90.1059L148.393 87.0796L150.18 87.294L149.817 90.3203L148.03 90.1059Z" fill="#E9FAE3"/>
<path fill-rule="evenodd" clip-rule="evenodd" d="M81.3779 5.19874C41.6708 3.10732 7.78632 33.6009 5.69489 73.308L3.69766 73.2028C5.84718 32.3926 40.6729 1.05199 81.4831 3.20151C122.293 5.35104 153.634 40.1768 151.484 80.987L149.487 80.8818C151.579 41.1746 121.085 7.29017 81.3779 5.19874Z" fill="#E9FAE3"/>
</svg>
