<svg width="156" height="158" viewBox="0 0 156 158" fill="none" xmlns="http://www.w3.org/2000/svg">
<path d="M6.40824 81.6064L11.8152 81.3739L11.6863 78.3767L4.01342 78.7067L4.06395 79.8816L4.05196 79.8821L4.43045 88.682L6.70834 88.584L6.40824 81.6064Z" fill="#E9FAE3"/>
<path d="M6.86181 101.056C7.93176 104.694 9.29698 106.232 11.4383 105.602C13.5681 104.975 13.9182 102.934 12.8483 99.2958C11.7715 95.6348 10.365 94.0847 8.23521 94.7111C6.0939 95.3409 5.78509 97.3955 6.86181 101.056ZM8.53111 100.565C8.01984 98.8271 8.17831 97.7924 9.06476 97.5316C9.95122 97.2709 10.6745 98.0714 11.179 99.7867C11.6835 101.502 11.4837 102.524 10.6087 102.781C9.72229 103.042 9.02884 102.258 8.53111 100.565Z" fill="#E9FAE3"/>
<path d="M14.086 117.867C16.0227 121.128 17.7258 122.279 19.6447 121.139C21.5534 120.005 21.3874 117.94 19.4507 114.68C17.5017 111.4 15.7554 110.246 13.8468 111.38C11.9279 112.52 12.137 114.587 14.086 117.867ZM15.5819 116.979C14.6564 115.421 14.554 114.379 15.3484 113.907C16.1428 113.435 17.0416 114.032 17.9548 115.569C18.868 117.106 18.9272 118.146 18.1432 118.612C17.3488 119.084 16.4829 118.495 15.5819 116.979Z" fill="#E9FAE3"/>
<path d="M21.5303 128.35L23.5539 130.399L29.4454 124.581L27.4218 122.532L21.5303 128.35ZM28.4485 130.642L32.8642 131.459L30.1829 128.743L25.9613 128.089L26.4038 133.285L28.9671 135.881L28.4485 130.642Z" fill="#E9FAE3"/>
<path d="M52.279 143.25L51.5243 144.924C51.4964 143.555 50.3621 142.188 48.3055 141.261C45.9426 140.196 43.7911 140.384 42.9426 142.265C42.1337 144.059 43.3825 145.873 45.7454 146.939C47.8129 147.871 49.5885 147.816 50.6216 146.926C50.17 147.986 50.0151 148.68 50.0151 148.68L52.4874 149.794L54.9045 144.434L52.279 143.25ZM47.4797 145.72C45.992 145.049 45.3163 144.27 45.6665 143.494C46.0217 142.706 47.0476 142.708 48.5353 143.379C50.1981 144.128 51.4898 145.001 51.0705 145.93C50.6562 146.849 49.1425 146.469 47.4797 145.72Z" fill="#E9FAE3"/>
<path d="M66.6669 147.261L64.624 146.829L64.9963 145.068L62.1786 144.472L61.8063 146.233L59.7635 145.802L59.3912 147.563L61.434 147.995L60.5901 151.986L63.4079 152.582L64.2517 148.59L66.2946 149.022L66.6669 147.261Z" fill="#E9FAE3"/>
<path d="M94.9315 145.758C92.5587 146.191 91.3148 147.796 91.018 148.509C90.2464 147.089 88.6985 146.896 87.1993 147.169C84.6967 147.626 83.589 149.109 83.3094 149.917L82.9819 148.122L80.1487 148.639L81.2046 154.424L84.0378 153.907L83.4387 150.625C83.7562 150.359 84.7581 149.567 86.2219 149.299C87.8274 149.006 88.4287 149.36 88.6442 150.541L89.0903 152.984L91.9235 152.467L91.4127 149.669C91.3783 149.48 91.3341 149.306 91.2782 149.133C91.6697 148.805 92.632 148.129 93.9542 147.888C95.5596 147.595 96.1609 147.949 96.3764 149.129L96.8225 151.573L99.6557 151.056L99.145 148.258C98.6924 145.779 96.7731 145.422 94.9315 145.758Z" fill="#E9FAE3"/>
<path d="M109.804 139.739L109.301 144.322L105.423 141.977L102.697 143.369L108.963 146.745L108.473 149.717L111.08 148.385L112.529 138.347L109.804 139.739Z" fill="#E9FAE3"/>
<path d="M133.358 124.139L131.583 126.093C131.868 126.725 131.521 127.643 130.553 128.708C129.351 130.032 128.395 130.638 127.604 129.92C126.814 129.202 127.324 128.158 128.51 126.853C129.478 125.787 130.358 125.354 130.998 125.595L132.782 123.632C131.495 122.496 129.724 122.929 127.222 125.683C124.721 128.436 123.94 130.563 125.627 132.096C127.315 133.63 129.34 132.632 131.841 129.878C134.342 127.125 134.646 125.309 133.358 124.139Z" fill="#E9FAE3"/>
<path d="M137.969 110.162L139.585 111.033C138.218 110.964 136.775 111.999 135.704 113.985C134.474 116.267 134.51 118.426 136.327 119.405C138.059 120.339 139.956 119.222 141.186 116.94C142.262 114.944 142.333 113.169 141.518 112.075C142.544 112.601 143.225 112.804 143.225 112.804L144.512 110.417L139.336 107.627L137.969 110.162ZM140.093 115.124C139.319 116.56 138.494 117.179 137.744 116.775C136.984 116.365 137.058 115.342 137.833 113.905C138.698 112.3 139.659 111.073 140.557 111.557C141.445 112.035 140.959 113.518 140.093 115.124Z" fill="#E9FAE3"/>
<path d="M142.987 96.0937L142.412 98.1009L140.682 97.605L139.888 100.374L141.619 100.869L141.043 102.877L142.774 103.373L143.349 101.365L147.271 102.489L148.065 99.7208L144.142 98.5968L144.718 96.5896L142.987 96.0937Z" fill="#E9FAE3"/>
<path d="M148.393 88.0796L148.03 91.1059L149.817 91.3203L150.18 88.294L148.393 88.0796Z" fill="#E9FAE3"/>
<path d="M150.486 81.9344C152.606 41.6757 121.689 7.3206 81.4305 5.20012C41.1719 3.07964 6.81678 33.9968 4.6963 74.2554" stroke="#E9FAE3" stroke-width="2"/>
</svg>
